<?xml version="1.0" encoding="UTF-8" standalone="no"?>
<svg width="23px" height="23px" viewBox="0 0 23 23" version="1.1" xmlns="http://www.w3.org/2000/svg" xmlns:xlink="http://www.w3.org/1999/xlink" xmlns:sketch="http://www.bohemiancoding.com/sketch/ns">
    <!-- Generator: Sketch 3.2.2 (9983) - http://www.bohemiancoding.com/sketch -->
    <title>Fill 1</title>
    <desc>Created with Sketch.</desc>
    <defs></defs>
    <g id="Page-1" stroke="none" stroke-width="1" fill="none" fill-rule="evenodd" sketch:type="MSPage">
        <g id="home-2" sketch:type="MSArtboardGroup" transform="translate(-889.000000, -259.000000)" fill="#444444">
            <path d="M906.19825,264.084437 C906.041563,264.304375 904.74925,266.04375 901.693125,267.189437 C900.284375,264.601938 898.72325,262.475875 898.486063,262.158187 C899.132938,262.002937 899.807125,261.919562 900.5,261.919562 C902.683562,261.919562 904.68025,262.738938 906.196812,264.085875 L906.19825,264.084437 L906.19825,264.084437 Z M901.100875,270.58625 C896.667625,272.020875 894.30725,275.926562 894.114625,276.260063 C892.740375,274.736312 891.90375,272.720937 891.90375,270.512938 C891.90375,270.42525 891.905188,270.337562 891.908063,270.249875 C892.286125,270.257063 896.450563,270.311688 900.742938,269.026563 C900.98875,269.508125 901.2245,269.996875 901.438688,270.485625 C901.326563,270.51725 901.213,270.55175 901.100875,270.58625 L901.100875,270.58625 Z M900.5,259 C894.149125,259 889,264.149125 889,270.5 C889,276.850875 894.149125,282 900.5,282 C906.850875,282 912,276.850875 912,270.5 C912,264.149125 906.850875,259 900.5,259 L900.5,259 Z M900.5,280.5625 C894.95125,280.5625 890.4375,276.04875 890.4375,270.5 C890.4375,264.95125 894.95125,260.4375 900.5,260.4375 C906.047312,260.4375 910.5625,264.95125 910.5625,270.5 C910.5625,276.04875 906.047312,280.5625 900.5,280.5625 L900.5,280.5625 Z M902.922187,269.71225 C902.743938,269.2925 902.55275,268.877063 902.352938,268.467375 C905.53125,267.169312 906.971625,265.323562 907.15275,265.079187 C908.350187,266.541125 909.074687,268.404125 909.091937,270.433875 C908.80875,270.3735 905.96825,269.797062 903.107625,270.157875 C903.04725,270.01125 902.985437,269.863187 902.922187,269.713687 L902.922187,269.71225 L902.922187,269.71225 Z M900.032812,267.7055 C896.012125,268.773563 892.471563,268.75775 892.084875,268.752 C892.644063,266.085438 894.440938,263.868812 896.845875,262.734625 C897.073,263.046562 898.60825,265.174062 900.032812,267.7055 L900.032812,267.7055 Z M901.96625,271.926 C901.986375,271.918813 902.005063,271.913063 902.02375,271.907312 C903.228375,275.0425 903.730063,277.671688 903.858,278.424937 C902.825875,278.864812 901.691687,279.10775 900.5,279.10775 C898.513375,279.10775 896.682,278.42925 895.224375,277.293625 C895.378187,276.977375 897.117562,273.615063 901.96625,271.926 L901.96625,271.926 Z M903.632313,271.510562 C906.326188,271.079313 908.692312,271.786563 908.984125,271.878562 C908.60175,274.270562 907.230375,276.334812 905.30125,277.638625 C905.212125,277.115375 904.755,274.59975 903.630875,271.510562 L903.632313,271.510562 L903.632313,271.510562 Z" id="Fill-1" sketch:type="MSShapeGroup"></path>
        </g>
    </g>
</svg>