<?xml version="1.0" encoding="UTF-8" standalone="no"?>
<svg width="23px" height="19px" viewBox="0 0 23 19" version="1.1" xmlns="http://www.w3.org/2000/svg" xmlns:xlink="http://www.w3.org/1999/xlink" xmlns:sketch="http://www.bohemiancoding.com/sketch/ns">
    <!-- Generator: Sketch 3.2.2 (9983) - http://www.bohemiancoding.com/sketch -->
    <title>Fill 2</title>
    <desc>Created with Sketch.</desc>
    <defs></defs>
    <g id="Page-1" stroke="none" stroke-width="1" fill="none" fill-rule="evenodd" sketch:type="MSPage">
        <g id="home-2" sketch:type="MSArtboardGroup" transform="translate(-929.000000, -263.000000)" fill="#444444">
            <path d="M929.002875,272.786046 C929.002875,273.845205 929.099187,274.803562 929.29325,275.661115 C929.48875,276.518669 929.757563,277.263733 930.104,277.896306 C930.449,278.52888 930.886,279.085486 931.419312,279.564664 C931.951187,280.043843 932.527625,280.436827 933.1515,280.742157 C933.7725,281.047487 934.482625,281.294381 935.281875,281.48576 C936.082562,281.677139 936.896187,281.810082 937.7285,281.886049 C938.560812,281.962016 939.475063,282 940.472688,282 C941.478938,282 942.396062,281.962016 943.228375,281.886049 C944.062125,281.810082 944.880063,281.677139 945.68075,281.48576 C946.482875,281.297303 947.197312,281.047487 947.824063,280.742157 C948.447937,280.436827 949.031562,280.045304 949.56775,279.564664 C950.103938,279.084025 950.54525,278.52888 950.893125,277.896306 C951.242438,277.263733 951.514125,276.518669 951.709625,275.661115 C951.905125,274.803562 952,273.845205 952,272.786046 C952,270.89563 951.377563,269.262333 950.132687,267.881774 C950.20025,267.69916 950.262062,267.491711 950.318125,267.259427 C950.374188,267.027142 950.427375,266.695516 950.47625,266.266008 C950.526563,265.833579 950.507875,265.33687 950.420187,264.772959 C950.335375,264.209048 950.174375,263.63345 949.9415,263.047626 L949.773312,263.014025 C949.654,262.99065 949.457063,262.996494 949.1825,263.031556 C948.909375,263.066617 948.591688,263.133819 948.226562,263.237544 C947.862875,263.341268 947.395688,263.538491 946.822125,263.832134 C946.247125,264.125777 945.641938,264.492465 945.005125,264.93512 C943.90975,264.62979 942.406125,264.477856 940.49425,264.477856 C938.591,264.477856 937.091688,264.62979 935.994875,264.93512 C935.3595,264.492465 934.748563,264.125777 934.16925,263.832134 C933.5885,263.538491 933.124188,263.341268 932.780625,263.237544 C932.435625,263.13528 932.112188,263.068078 931.81175,263.03886 C931.511313,263.00672 931.323,262.997955 931.245375,263.008181 C931.166313,263.019868 931.1045,263.033017 931.059937,263.047626 C930.827063,263.634911 930.666062,264.209048 930.58125,264.772959 C930.493563,265.33687 930.474875,265.833579 930.525188,266.266008 C930.574063,266.695516 930.625813,267.027142 930.683312,267.259427 C930.740813,267.491711 930.801188,267.69916 930.86875,267.881774 C929.623875,269.260872 929,270.89563 929,272.786046 L929.002875,272.786046 L929.002875,272.786046 Z M931.826125,275.655272 C931.826125,274.558129 932.31775,273.551562 933.298125,272.637033 C933.589938,272.362382 933.9335,272.154933 934.321625,272.014686 C934.712625,271.874439 935.1525,271.794089 935.642688,271.775097 C936.13575,271.756105 936.604375,271.760488 937.05575,271.786784 C937.50425,271.813081 938.060562,271.849603 938.720375,271.894891 C939.380188,271.94018 939.948,271.963554 940.428125,271.963554 C940.90825,271.963554 941.478938,271.94018 942.13875,271.894891 C942.798563,271.849603 943.352,271.813081 943.803375,271.786784 C944.251875,271.760488 944.721937,271.756105 945.213562,271.775097 C945.705188,271.794089 946.1465,271.874439 946.534625,272.014686 C946.925625,272.154933 947.264875,272.363843 947.558125,272.637033 C948.541375,273.536953 949.033,274.54352 949.033,275.655272 C949.033,276.31122 948.9525,276.891201 948.7915,277.398136 C948.629063,277.905072 948.4235,278.330196 948.173375,278.672049 C947.920375,279.015363 947.573937,279.306084 947.125438,279.547134 C946.679813,279.788184 946.24425,279.972258 945.820187,280.102279 C945.396125,280.2323 944.85275,280.333103 944.190063,280.404687 C943.527375,280.476272 942.933688,280.52156 942.413313,280.536169 C941.892938,280.550778 941.231688,280.559544 940.428125,280.559544 C939.627438,280.559544 938.966187,280.552239 938.442937,280.536169 C937.922563,280.52156 937.330312,280.477733 936.666188,280.404687 C936.0035,280.331642 935.458687,280.230839 935.036063,280.102279 C934.612,279.972258 934.179313,279.788184 933.730812,279.547134 C933.28375,279.306084 932.935875,279.015363 932.684313,278.672049 C932.434188,278.328735 932.227188,277.905072 932.067625,277.398136 C931.905188,276.891201 931.826125,276.309759 931.826125,275.655272 L931.826125,275.655272 Z M943.377875,275.424448 C943.377875,274.214815 944.020438,273.233084 944.815375,273.233084 C945.608875,273.233084 946.252875,274.214815 946.252875,275.424448 C946.252875,276.634081 945.608875,277.615812 944.815375,277.615812 C944.020438,277.615812 943.377875,276.634081 943.377875,275.424448 L943.377875,275.424448 Z M934.752875,275.424448 C934.752875,274.214815 935.395438,273.233084 936.190375,273.233084 C936.983875,273.233084 937.627875,274.214815 937.627875,275.424448 C937.627875,276.634081 936.983875,277.615812 936.190375,277.615812 C935.395438,277.615812 934.752875,276.634081 934.752875,275.424448 L934.752875,275.424448 Z" id="Fill-2" sketch:type="MSShapeGroup"></path>
        </g>
    </g>
</svg>