<?xml version="1.0" encoding="UTF-8" standalone="no"?>
<svg width="23px" height="24px" viewBox="0 0 23 24" version="1.1" xmlns="http://www.w3.org/2000/svg" xmlns:xlink="http://www.w3.org/1999/xlink" xmlns:sketch="http://www.bohemiancoding.com/sketch/ns">
    <!-- Generator: Sketch 3.2.2 (9983) - http://www.bohemiancoding.com/sketch -->
    <title>Fill 1</title>
    <desc>Created with Sketch.</desc>
    <defs></defs>
    <g id="Page-1" stroke="none" stroke-width="1" fill="none" fill-rule="evenodd" sketch:type="MSPage">
        <g id="home-2" sketch:type="MSArtboardGroup" transform="translate(-851.000000, -259.000000)" fill="#4A4A4A">
            <g id="Group" sketch:type="MSLayerGroup" transform="translate(181.000000, 258.000000)">
                <path d="M688.999875,1.7 L673.8444,1.7 C671.772911,1.7 670.079989,3.3879375 670.079989,5.4516 L670.079989,20.5484 C670.079989,22.6120625 671.772911,24.3 673.8444,24.3 L688.999875,24.3 C691.071364,24.3 692.765704,22.6120625 692.765704,20.5484 L692.765704,5.4516 C692.765704,3.3879375 691.071364,1.7 688.999875,1.7 L688.999875,1.7 Z M677.342254,11.5875 L685.503439,11.5875 C685.656568,12.0282 685.743057,12.505625 685.743057,13 C685.743057,15.373 683.804846,17.3038875 681.422846,17.3038875 C679.039429,17.3038875 677.102636,15.373 677.102636,13 C677.102636,12.505625 677.187707,12.0282 677.342254,11.5875 L677.342254,11.5875 Z M689.929989,11.5889125 L689.929989,20.0625 C689.929989,20.839375 689.291954,21.475 688.512132,21.475 L674.333561,21.475 C673.553739,21.475 672.915704,20.839375 672.915704,20.0625 L672.915704,11.5875 L675.133232,11.5875 C675.029729,12.042325 674.97585,12.5155125 674.97585,13 C674.97585,16.5411375 677.868279,19.4226375 681.422846,19.4226375 C684.977414,19.4226375 687.869843,16.5411375 687.869843,13 C687.869843,12.5155125 687.814546,12.042325 687.712461,11.5875 L689.929989,11.5889125 L689.929989,11.5889125 Z M689.929989,6.64375 C689.929989,7.0321875 689.609554,7.35 689.221061,7.35 L687.803204,7.35 C687.413293,7.35 687.094275,7.0321875 687.094275,6.64375 L687.094275,5.23125 C687.094275,4.8428125 687.413293,4.525 687.803204,4.525 L689.221061,4.525 C689.609554,4.525 689.929989,4.8428125 689.929989,5.23125 L689.929989,6.64375 L689.929989,6.64375 Z" id="Fill-1" sketch:type="MSShapeGroup"></path>
            </g>
        </g>
    </g>
</svg>