<?xml version="1.0" encoding="UTF-8" standalone="no"?>
<svg width="24px" height="24px" viewBox="0 0 24 24" version="1.1" xmlns="http://www.w3.org/2000/svg" xmlns:xlink="http://www.w3.org/1999/xlink" xmlns:sketch="http://www.bohemiancoding.com/sketch/ns">
    <!-- Generator: Sketch 3.2.2 (9983) - http://www.bohemiancoding.com/sketch -->
    <title>Fill 3</title>
    <desc>Created with Sketch.</desc>
    <defs></defs>
    <g id="Page-1" stroke="none" stroke-width="1" fill="none" fill-rule="evenodd" sketch:type="MSPage">
        <g id="home-2" sketch:type="MSArtboardGroup" transform="translate(-807.000000, -258.000000)" fill="#4A4A4A">
            <g id="Group" sketch:type="MSLayerGroup" transform="translate(181.000000, 258.000000)">
                <path d="M637.765704,0.702825 C631.500193,0.702825 626.422846,5.7624 626.422846,12.002825 C626.422846,16.7897875 629.411689,20.878975 633.63265,22.52595 C633.5334,21.6318375 633.442657,20.2603 633.670932,19.2842625 C633.877939,18.4028625 635.0023,13.66675 635.0023,13.66675 C635.0023,13.66675 634.663432,12.9901625 634.663432,11.9887 C634.663432,10.418 635.576532,9.2442125 636.716489,9.2442125 C637.683468,9.2442125 638.149943,9.9674125 638.149943,10.8361 C638.149943,11.805075 637.531757,13.2557125 637.209904,14.5975875 C636.944764,15.7219375 637.777046,16.6400625 638.891482,16.6400625 C640.907675,16.6400625 642.457393,14.522725 642.457393,11.4646625 C642.457393,8.759725 640.506421,6.866975 637.718914,6.866975 C634.490454,6.866975 632.596196,9.2781125 632.596196,11.771175 C632.596196,12.742975 632.971929,13.7839875 633.439821,14.3504 C633.5334,14.4619875 633.546161,14.55945 633.519221,14.6738625 C633.431314,15.031225 633.241321,15.7982125 633.203039,15.955 C633.153414,16.161225 633.038568,16.2050125 632.824471,16.1061375 C631.408032,15.449325 630.521871,13.38425 630.521871,11.7288 C630.521871,8.16365 633.122221,4.8908875 638.016664,4.8908875 C641.9498,4.8908875 645.008118,7.6848125 645.008118,11.4166375 C645.008118,15.3109 642.543882,18.443825 639.122593,18.443825 C637.972711,18.443825 636.893721,17.850575 636.522243,17.14715 C636.522243,17.14715 635.9551,19.30545 635.81615,19.833725 C635.559518,20.8154125 634.869021,22.0457 634.408218,22.7957375 C635.470193,23.1234375 636.597389,23.3 637.765704,23.3 C644.031214,23.3 649.108561,18.240425 649.108561,12 C649.108561,5.759575 644.031214,0.7 637.765704,0.7 L637.765704,0.702825" id="Fill-3" sketch:type="MSShapeGroup"></path>
            </g>
        </g>
    </g>
</svg>