<?xml version="1.0" encoding="UTF-8" standalone="no"?>
<svg width="23px" height="20px" viewBox="0 0 23 20" version="1.1" xmlns="http://www.w3.org/2000/svg" xmlns:xlink="http://www.w3.org/1999/xlink" xmlns:sketch="http://www.bohemiancoding.com/sketch/ns">
    <!-- Generator: Sketch 3.2.2 (9983) - http://www.bohemiancoding.com/sketch -->
    <title>Fill 2</title>
    <desc>Created with Sketch.</desc>
    <defs></defs>
    <g id="Page-1" stroke="none" stroke-width="1" fill="none" fill-rule="evenodd" sketch:type="MSPage">
        <g id="home-2" sketch:type="MSArtboardGroup" transform="translate(-762.000000, -261.000000)" fill="#4A4A4A">
            <g id="Group" sketch:type="MSLayerGroup" transform="translate(181.000000, 258.000000)">
                <path d="M603.922846,6.109925 C603.087729,6.4785875 602.190225,6.7286 601.250186,6.8401875 C602.211493,6.2667125 602.948779,5.3570625 603.296154,4.2750875 C602.397232,4.8061875 601.400479,5.1918 600.339921,5.40085 C599.490625,4.499675 598.281193,3.9360875 596.942736,3.9360875 C594.372161,3.9360875 592.287911,6.0124625 592.287911,8.5719125 C592.287911,8.934925 592.327611,9.2894625 592.408429,9.6284625 C588.539096,9.43495 585.1093,7.5888125 582.813789,4.7835875 C582.413954,5.46865 582.185679,6.2653 582.185679,7.1142125 C582.185679,8.72305 583.006618,10.1426125 584.25575,10.97175 C583.492943,10.94915 582.775507,10.7401 582.147396,10.392625 L582.147396,10.4505375 C582.147396,12.6964125 583.750993,14.5708 585.879196,14.997375 C585.490704,15.1033125 585.079525,15.1598125 584.654168,15.1598125 C584.352164,15.1598125 584.062921,15.13015 583.777932,15.076475 C584.370596,16.918375 586.089039,18.2588375 588.123664,18.296975 C586.531411,19.539975 584.523725,20.2815375 582.343061,20.2815375 C581.968746,20.2815375 581.598686,20.2589375 581.234296,20.2165625 C583.294443,21.5316 585.740246,22.3 588.367536,22.3 C596.928557,22.3 601.611739,15.234675 601.611739,9.10725 C601.611739,8.906675 601.607486,8.7061 601.596143,8.5069375 C602.507825,7.8515375 603.296154,7.036525 603.920011,6.1071 L603.922846,6.109925" id="Fill-2" sketch:type="MSShapeGroup"></path>
            </g>
        </g>
    </g>
</svg>